# AST/ASF file generated using VICON BodyLanguage
# -----------------------------------------------
:version 1.10
:name VICON
:units
  mass 1.0
  length 0.45
  angle deg
:documentation
   .ast/.asf automatically generated from VICON data using
   VICON BodyBuilder and BodyLanguage model FoxedUp or BRILLIANT.MOD
:root
   order TX TY TZ RX RY RZ
   axis XYZ
   position 0 0 0  
   orientation 0 0 0 
:bonedata
  begin
     id 1 
     name lhipjoint
     direction 0.660183 -0.676772 0.325788 
     length 2.75133 
     axis 0 0 0  XYZ
  end
  begin
     id 2 
     name lfemur
     direction 0.34202 -0.939693 0  
     length 7.70317  
     axis 0 0 20  XYZ
    dof rx ry rz
    limits (-160.0 20.0)
           (-70.0 70.0)
           (-60.0 70.0)
  end
  begin
     id 3 
     name ltibia
     direction 0.342105 -0.939662 0   
     length 7.18701   
     axis 0 0 20   XYZ
    dof rx
    limits (-10.0 170.0)
  end
  begin
     id 4 
     name lfoot
     direction 0.14163 -0.389126 0.910232   
     length 2.41719   
     axis -90 7.62852e-016 20   XYZ
    dof rx rz
    limits (-45.0 90.0)
           (-70.0 20.0)
  end
  begin
     id 5 
     name ltoes
     direction 1.53533e-011 -4.21926e-011 1   
     length 1.18611   
     axis -90 7.62852e-016 20   XYZ
    dof rx
    limits (-90.0 20.0)
  end
  begin
     id 6 
     name rhipjoint
     direction -0.6658 -0.67229 0.323631   
     length 2.76968  
     axis 0 0 0  XYZ 
  end
  begin
     id 7 
     name rfemur
     direction -0.34202 -0.939693 0   
     length 7.92547   
     axis 0 0 -20   XYZ
    dof rx ry rz
    limits (-160.0 20.0)
           (-70.0 70.0)
           (-70.0 60.0)
  end
  begin
     id 8 
     name rtibia
     direction -0.342022 -0.939692 0   
     length 7.22641   
     axis 0 0 -20   XYZ
    dof rx
    limits (-10.0 170.0)
 end
 begin
     id 9 
     name rfoot
     direction -0.105675 -0.29034 0.951071   
     length 2.48149  
     axis -90 -7.62852e-016 -20   XYZ
    dof rx rz
    limits (-45.0 90.0)
           (-20.0 70.0)
  end
  begin
     id 10 
     name rtoes
     direction -1.5349e-011 -4.21859e-011 1   
     length 1.23343   
     axis -90 -7.62852e-016 -20   XYZ
    dof rx
    limits (-90.0 20.0)
  end
  begin
     id 11 
     name lowerback
     direction 0.0104173 0.993624 -0.112266   
     length 2.00527   
     axis 0 0 0   XYZ
    dof rx ry rz
    limits (-20.0 45.0)
           (-30.0 30.0)
           (-30.0 30.0)
  end
  begin
     id 12 
     name upperback
     direction 0.00733149 0.999856 -0.0152913   
     length 2.01385   
     axis 0 0 0   XYZ
    dof rx ry rz
    limits (-20.0 45.0)
           (-30.0 30.0)
           (-30.0 30.0)
  end
  begin
     id 13 
     name thorax
     direction 0.0026304 0.999318 0.036841   
     length 2.03734   
     axis 0 0 0   XYZ
    dof rx ry rz
    limits (-20.0 45.0)
           (-30.0 30.0)
           (-30.0 30.0)
  end
  begin
     id 14 
     name lowerneck
     direction 0.0293154 0.998757 0.0403082   
     length 1.65303   
     axis 0 0 0   XYZ
    dof rx ry rz
    limits (-20.0 45.0)
           (-30.0 30.0)
           (-30.0 30.0)
  end
  begin
     id 15 
     name upperneck
     direction -0.0376619 0.998184 -0.0470083   
     length 1.60926   
     axis 0 0 0   XYZ
    dof rx ry rz
    limits (-20.0 45.0)
           (-30.0 30.0)
           (-30.0 30.0)
  end
  begin
     id 16
     name head
     direction -0.0170133 0.999635 -0.0209778  
     length 1.73625  
     axis 0 0 0   XYZ
    dof rx ry rz
    limits (-20.0 45.0)
           (-30.0 30.0)
           (-30.0 30.0)
  end
  begin
     id 17 
     name lclavicle
     direction 0.919857 0.39181 -0.0186333  
     length 3.75313  
     axis 0 0 0   XYZ
    dof ry rz
    limits (-20.0 10.0)
           (0.0 20.0)
  end
  begin
     id 18 
     name lhumerus
     direction 1 -4.48988e-011 1.44029e-027   
     length 5.49313   
     axis 180 -30 -90   XYZ
    dof rx ry rz
    limits (-60.0 90.0)
           (-90.0 90.0)
           (-90.0 90.0)
  end
  begin
     id 19
     name lradius
     direction 1 -4.48924e-011 7.46281e-027   
     length 3.29037   
     axis 180 -30 -90   XYZ
    dof rx
    limits (-10.0 170.0)
  end
  begin
     id 20
     name lwrist
     direction 1 -4.48955e-011 2.19879e-026   
     length 1.64519   
     axis -1.34358e-014 90 90   XYZ
    dof ry
    limits (-180.0 0.0)
 end
  begin
     id 21 
     name lhand
     direction 1 -4.48978e-011 4.39747e-026   
     length 0.729656   
     axis -2.80598e-014 90 90   XYZ
    dof rx rz
    limits (-90.0 90.0)
           (-45.0 45.0)
  end
  begin
     id 22 
     name lfingers
     direction 1 -4.49071e-011 8.79411e-026   
     length 0.588268   
     axis -5.61193e-014 90 90   XYZ
    dof rx
    limits (0.0 90.0)
  end
  begin
     id 23
     name lthumb
     direction 0.707107 -6.34817e-011 0.707107   
     length 0.844638   
     axis -90 45 -9.86923e-015   XYZ
    dof rx rz
    limits (-45.0 45.0)
           (-45.0 45.0)
  end
  begin
     id 24 
     name rclavicle
     direction -0.919898 0.388279 0.0550233   
     length 3.7171  
     axis 0 0 0   XYZ 
    dof ry rz
    limits (-10.0 20.0)
           (-20.0 0.0)
  end
  begin
     id 25 
     name rhumerus
     direction -1 -4.48968e-011 9.98372e-028  
     length 5.23684   
     axis 180 30 90   XYZ
    dof rx ry rz
    limits (-90.0 60.0)
           (-90.0 90.0)
           (-90.0 90.0)
  end
  begin
     id 26 
     name rradius
     direction -1 -4.48956e-011 1.01023e-026   
     length 3.38251   
     axis 180 30 90   XYZ
    dof rx
    limits (-10.0 170.0)
  end
  begin
     id 27 
     name rwrist
     direction -1 -4.4892e-011 2.19886e-026   
     length 1.69126   
     axis -1.34358e-014 -90 -90   XYZ
    dof ry
    limits (-180.0 0.0)
  end
  begin
     id 28
     name rhand
     direction -1 -4.49024e-011 4.39727e-026   
     length 0.691454   
     axis -2.80598e-014 -90 -90   XYZ
    dof rx rz
    limits (-90.0 90.0)
           (-45.0 45.0)
  end
  begin
     id 29
     name rfingers
     direction -1 -4.49097e-011 8.79388e-026   
     length 0.557468   
     axis -5.61193e-014 -90 -90   XYZ
    dof rx
    limits (0.0 90.0)
  end
  begin
     id 30
     name rthumb
     direction -0.707107 -6.34938e-011 0.707107   
     length 0.800416   
     axis -90 -45 9.86923e-015   XYZ
    dof rx rz
    limits (-45.0 45.0)
           (-45.0 45.0)
  end
:hierarchy
  begin
    root lhipjoint rhipjoint lowerback
    lhipjoint lfemur
    lfemur ltibia
    ltibia lfoot
    lfoot ltoes
    rhipjoint rfemur
    rfemur rtibia
    rtibia rfoot
    rfoot rtoes
    lowerback upperback
    upperback thorax
    thorax lowerneck lclavicle rclavicle
    lowerneck upperneck
    upperneck head
    lclavicle lhumerus
    lhumerus lradius
    lradius lwrist
    lwrist lhand lthumb
    lhand lfingers
    rclavicle rhumerus
    rhumerus rradius
    rradius rwrist
    rwrist rhand rthumb
    rhand rfingers
  end

#!OML:ASF H:\BabyWalks\Project 1\Capture day 1\Session 1\baby.ASF
:FULLY-SPECIFIED
:DEGREES
125
root -31.3464 17.8231 -3.03801 -45.2751 72.4487 -48.9157
lowerback 14.7363 -0.833919 0.240468
upperback 2.71317 -1.13316 -3.26849
thorax -5.45801 -0.528267 -3.38193
lowerneck 2.33836 7.5946 6.89733
upperneck -3.82985 10.1443 -7.43088
head -0.842524 5.11226 -3.69109
rclavicle -2.38542e-015 -9.54166e-015
rhumerus 39.055 -31.6913 -15.0849
rradius 68.6057
rwrist -25.4853
rhand -27.1384 -27.812
rfingers 7.12502
rthumb -0.553774 -57.791
lclavicle -2.38542e-015 -9.54166e-015
lhumerus -43.5646 4.40749 66.2427
lradius 55.5827
lwrist 4.54867
lhand -4.90473 11.5553
lfingers 7.12502
lthumb 20.8849 40.4511
rfemur -0.460263 3.97739 31.518
rtibia 6.36111e-015
rfoot -3.63741 1.09092
rtoes 18.0075
lfemur -9.61463 -10.8288 1.27938
ltibia 29.7709
lfoot -21.5111 17.8065
ltoes -6.30199
126
root -31.3487 17.8271 -3.02717 -45.4284 72.5576 -49.179
lowerback 14.5622 -0.732919 0.0662998
upperback 2.58805 -1.03062 -3.2445
thorax -5.4854 -0.478044 -3.27723
lowerneck 2.30992 7.54794 6.93063
upperneck -3.60067 10.0894 -7.43144
head -0.766007 5.08374 -3.68852
rclavicle -1.74931e-014 -3.49861e-014
rhumerus 40.9935 -27.9489 -15.832
rradius 68.5412
rwrist -25.1516
rhand -27.9653 -27.2231
rfingers 7.12502
rthumb -1.35241 -57.1985
lclavicle -1.74931e-014 -3.49861e-014
lhumerus -44.0988 4.3426 66.4127
lradius 55.8308
lwrist 5.0463
lhand -5.2945 11.386
lfingers 7.12502
lthumb 20.5104 40.3226
rfemur -0.604927 3.78799 31.4981
rtibia 3.97569e-016
rfoot -3.64423 1.2898
rtoes 18.3019
lfemur -9.7567 -11.0868 1.26262
ltibia 29.7251
lfoot -21.5683 18.1054
ltoes -6.10774
127
root -31.3489 17.8306 -3.01696 -45.4396 72.668 -49.2763
lowerback 14.3788 -0.646041 -0.144374
upperback 2.44741 -0.953564 -3.24502
thorax -5.52585 -0.439837 -3.17288
lowerneck 2.30371 7.51782 6.96743
upperneck -3.37152 10.0583 -7.42366
head -0.691926 5.06728 -3.68483
rclavicle -1.11319e-014 2.22639e-014
rhumerus 42.7793 -24.0069 -16.7401
rradius 68.3319
rwrist -24.7217
rhand -28.4033 -26.3758
rfingers 7.12502
rthumb -1.77538 -56.3481
lclavicle -1.11319e-014 2.22639e-014
lhumerus -44.7083 4.21843 66.5434
lradius 56.0315
lwrist 5.55791
lhand -5.53619 11.2255
lfingers 7.12502
lthumb 20.2782 40.1869
rfemur -0.721782 3.62892 31.436
rtibia -1.23246e-014
rfoot -3.65088 1.4933
rtoes 18.6601
lfemur -9.83607 -11.3321 1.19967
ltibia 29.6448
lfoot -21.6163 18.403
ltoes -5.90553
128
root -31.3471 17.8337 -3.00755 -45.3367 72.7708 -49.2329
lowerback 14.1923 -0.572614 -0.368766
upperback 2.29362 -0.897538 -3.2717
thorax -5.58016 -0.41171 -3.08457
lowerneck 2.27046 7.4846 6.96538
upperneck -3.09742 10.023 -7.36255
head -0.603908 5.04795 -3.65328
rclavicle -3.26007e-014 3.18055e-015
rhumerus 44.4111 -19.904 -17.8908
rradius 67.9883
rwrist -24.1726
rhand -28.395 -25.3947
rfingers 7.12502
rthumb -1.76739 -55.3671
lclavicle -3.26007e-014 3.18055e-015
lhumerus -45.3757 4.02947 66.636
lradius 56.1776
lwrist 6.07916
lhand -5.63676 11.0637
lfingers 7.12502
lthumb 20.1815 40.0354
rfemur -0.806891 3.49988 31.345
rtibia -3.97569e-016
rfoot -3.65629 1.70125
rtoes 19.0602
lfemur -9.84838 -11.5756 1.10402
ltibia 29.537
lfoot -21.6497 18.697
ltoes -5.61068
129
root -31.3432 17.8362 -2.99902 -45.1356 72.8663 -49.0593
lowerback 13.9996 -0.50986 -0.601145
upperback 2.13529 -0.857162 -3.32102
thorax -5.63711 -0.390826 -3.01285
lowerneck 2.2523 7.45064 6.96127
upperneck -2.83452 9.98682 -7.32163
head -0.521343 5.02881 -3.62968
rclavicle 7.95139e-015 -1.59028e-014
rhumerus 45.8709 -15.6586 -19.3318
rradius 67.5243
rwrist -23.5025
rhand -28.0002 -24.4196
rfingers 7.12502
rthumb -1.3861 -54.3949
lclavicle 7.95139e-015 -1.59028e-014
lhumerus -46.0727 3.7825 66.7047
lradius 56.254
lwrist 6.59201
lhand -5.58812 10.9492
lfingers 7.12502
lthumb 20.2283 39.9159
rfemur -0.853092 3.39672 31.2276
rtibia -8.74653e-015
rfoot -3.65799 1.91312
rtoes 19.4917
lfemur -9.7961 -11.8138 0.973564
ltibia 29.409
lfoot -21.6623 18.9991
ltoes -5.2443
130
root -31.3375 17.8381 -2.9913 -44.8512 72.9436 -48.7698
lowerback 13.7991 -0.452077 -0.833095
upperback 1.97898 -0.822707 -3.38377
thorax -5.68812 -0.372405 -2.95451
lowerneck 2.2027 7.41182 6.92526
upperneck -2.53275 9.94291 -7.27931
head -0.423161 5.00569 -3.59732
rclavicle 2.14687e-014 0
rhumerus 47.1132 -11.2907 -21.0426
rradius 66.956
rwrist -22.7055
rhand -27.3625 -23.624
rfingers 7.12502
rthumb -0.770211 -53.6024
lclavicle 2.14687e-014 0
lhumerus -46.7713 3.48693 66.7711
lradius 56.2449
lwrist 7.08804
lhand -5.42564 10.8159
lfingers 7.12502
lthumb 20.3844 39.766
rfemur -0.858193 3.32359 31.0971
rtibia 2.54444e-014
rfoot -3.65411 2.12751
rtoes 19.9332
lfemur -9.68324 -12.0424 0.81889
ltibia 29.2711
lfoot -21.6841 19.3092
ltoes -4.73385
131
root -31.3298 17.8394 -2.98461 -44.4912 73 -48.3692
lowerback 13.601 -0.396207 -1.06303
upperback 1.82896 -0.78937 -3.45016
thorax -5.73396 -0.35404 -2.90094
lowerneck 2.10651 7.37168 6.83436
upperneck -2.19854 9.89447 -7.23982
head -0.309541 4.98005 -3.55302
rclavicle -1.82882e-014 2.22639e-014
rhumerus 48.0746 -6.81209 -22.9393
rradius 66.3251
rwrist -21.8148
rhand -26.6955 -23.1749
rfingers 7.12502
rthumb -0.125969 -53.1546
lclavicle -1.82882e-014 2.22639e-014
lhumerus -47.4508 3.16243 66.8568
lradius 56.1405
lwrist 7.54278
lhand -5.15931 10.7417
lfingers 7.12502
lthumb 20.6403 39.6642
rfemur -0.819092 3.28046 30.9567
rtibia -8.34896e-015
rfoot -3.64984 2.34151
rtoes 20.3462
lfemur -9.50915 -12.2643 0.638083
ltibia 29.1291
lfoot -21.7618 19.6331
ltoes -4.12344
132
root -31.3205 17.8402 -2.97913 -44.077 73.0283 -47.8795
lowerback 13.4056 -0.338801 -1.28674
upperback 1.6953 -0.750807 -3.50739
thorax -5.76362 -0.332562 -2.842
lowerneck 1.95304 7.32674 6.69624
upperneck -1.82048 9.83738 -7.22378
head -0.173811 4.9496 -3.50462
rclavicle -2.38542e-014 1.59028e-014
rhumerus 48.7158 -2.2422 -24.9308
rradius 65.6659
rwrist -20.8817
rhand -26.1981 -23.1505
rfingers 7.12502
rthumb 0.354385 -53.1299
lclavicle -2.38542e-014 1.59028e-014
lhumerus -48.0813 2.83499 66.9835
lradius 55.9325
lwrist 7.91985
lhand -4.79286 10.7013
lfingers 7.12502
lthumb 20.9924 39.5853
rfemur -0.734846 3.2681 30.8173
rtibia -1.94809e-014
rfoot -3.64679 2.55271
rtoes 20.7138
lfemur -9.27636 -12.4797 0.439623
ltibia 28.9888
lfoot -21.8878 19.9739
ltoes -3.41494
133
root -31.3096 17.8401 -2.97508 -43.6066 73.031 -47.2987
lowerback 13.2238 -0.277206 -1.5113
upperback 1.58153 -0.704331 -3.54785
thorax -5.77928 -0.306487 -2.76603
lowerneck 1.73054 7.28613 6.48241
upperneck -1.42187 9.78275 -7.2225
head -0.0225851 4.91935 -3.44422
rclavicle 0 6.36111e-015
rhumerus 49.0091 2.3963 -26.9307
rradius 65.0139
rwrist -19.9515
rhand -25.9503 -23.495
rfingers 7.12502
rthumb 0.593718 -53.4739
lclavicle 0 6.36111e-015
lhumerus -48.6447 2.53101 67.1633
lradius 55.6219
lwrist 8.17447
lhand -4.33187 10.6471
lfingers 7.12502
lthumb 21.4352 39.4813
rfemur -0.605734 3.28515 30.676
rtibia -2.38542e-015
rfoot -3.64695 2.75811
rtoes 21.0394
lfemur -8.98571 -12.6906 0.217962
ltibia 28.8496
lfoot -22.0721 20.334
ltoes -2.65125
134
root -31.2972 17.8392 -2.97245 -43.0924 73.0081 -46.6427
lowerback 13.0577 -0.207233 -1.74318
upperback 1.49466 -0.644661 -3.56363
thorax -5.77438 -0.273047 -2.66185
lowerneck 1.43623 7.25435 6.16791
upperneck -1.03674 9.73607 -7.2181
head 0.131734 4.89155 -3.36227
rclavicle 2.46493e-014 1.59028e-014
rhumerus 48.9491 7.06456 -28.8897
rradius 64.3984
rwrist -19.07
rhand -25.9425 -24.0966
rfingers 7.12502
rthumb 0.60126 -54.0755
lclavicle 2.46493e-014 1.59028e-014
lhumerus -49.1202 2.26872 67.4046
lradius 55.2204
lwrist 8.27075
lhand -3.7733 10.6118
lfingers 7.12502
lthumb 21.9716 39.3839
rfemur -0.435964 3.32948 30.5371
rtibia -2.10712e-014
rfoot -3.65549 2.95456
rtoes 21.3
lfemur -8.6431 -12.8882 -0.0224215
ltibia 28.7085
lfoot -22.2855 20.7064
ltoes -1.92903
135
root -31.2834 17.8376 -2.97136 -42.5447 72.9707 -45.926
lowerback 12.8941 -0.12283 -1.99964
upperback 1.44737 -0.564532 -3.54713
thorax -5.72801 -0.228266 -2.51262
lowerneck 1.09154 7.22641 5.74211
upperneck -0.712177 9.69116 -7.20213
head 0.268776 4.86324 -3.25661
rclavicle -5.96354e-015 -2.22639e-014
rhumerus 48.526 11.7126 -30.786
rradius 63.8496
rwrist -18.2606
rhand -26.0297 -24.7646
rfingers 7.12502
rthumb 0.517097 -54.7437
lclavicle -5.96354e-015 -2.22639e-014
lhumerus -49.4823 2.06196 67.7209
lradius 54.746
lwrist 8.17597
lhand -3.11039 10.5572
lfingers 7.12502
lthumb 22.608 39.2532
rfemur -0.230999 3.39107 30.3938
rtibia 2.78299e-014
rfoot -3.67804 3.14588
rtoes 21.4641
lfemur -8.24806 -13.0863 -0.284322
ltibia 28.5559
lfoot -22.5401 21.0661
ltoes -1.22075
